<svg width="455" height="282" xmlns="http://www.w3.org/2000/svg" xmlns:svg="http://www.w3.org/2000/svg" xmlns:xlink="http://www.w3.org/1999/xlink">
 <g class="layer">
  <title>Layer 1</title>
  <g id="svg_1">
   <g id="svg_2">
    <path d="m225.686,277.337c-1.46,0 -2.913,-0.382 -4.19,-1.121l-13.34,-7.892c-1.991,-1.115 -1.018,-1.509 -0.362,-1.738c2.658,-0.922 3.195,-1.135 6.031,-2.744c0.295,-0.166 0.687,-0.103 0.992,0.076l10.248,6.084c0.372,0.206 0.896,0.206 1.238,0l39.953,-23.061c0.372,-0.212 0.61,-0.64 0.61,-1.081l0,-46.108c0,-0.451 -0.239,-0.872 -0.62,-1.101l-39.936,-23.041c-0.368,-0.216 -0.859,-0.216 -1.231,0l-39.927,23.047c-0.388,0.222 -0.634,0.657 -0.634,1.095l0,46.108c0,0.441 0.245,0.859 0.63,1.068l10.945,6.324c5.938,2.969 9.574,-0.528 9.574,-4.041l0,-45.524c0,-0.643 0.518,-1.151 1.161,-1.151l5.066,0c0.634,0 1.158,0.508 1.158,1.151l0,45.523c0,7.926 -4.316,12.471 -11.83,12.471c-2.309,0 -4.127,0 -9.203,-2.501l-10.477,-6.031c-2.588,-1.496 -4.19,-4.293 -4.19,-7.289l0,-46.108c0,-2.996 1.602,-5.793 4.19,-7.282l39.953,-23.087c2.528,-1.43 5.889,-1.43 8.397,0l39.95,23.087c2.588,1.496 4.197,4.286 4.197,7.282l0,46.108c0,2.996 -1.609,5.782 -4.197,7.289l-39.95,23.067c-1.277,0.739 -2.726,1.121 -4.206,1.121z" fill="#699F63" id="svg_3"/>
    <path d="m238.027,245.571c-17.483,0 -21.146,-8.025 -21.146,-14.756c0,-0.64 0.514,-1.151 1.155,-1.151l5.165,0c0.577,0 1.058,0.415 1.148,0.979c0.78,5.258 3.105,7.912 13.678,7.912c8.417,0 12,-1.904 12,-6.37c0,-2.574 -1.015,-4.485 -14.096,-5.766c-10.931,-1.081 -17.693,-3.497 -17.693,-12.242c0,-8.062 6.794,-12.869 18.187,-12.869c12.799,0 19.132,4.442 19.935,13.974c0.03,0.328 -0.086,0.644 -0.305,0.889c-0.219,0.229 -0.524,0.368 -0.846,0.368l-5.185,0c-0.537,0 -1.012,-0.382 -1.121,-0.902c-1.244,-5.534 -4.27,-7.302 -12.477,-7.302c-9.19,0 -10.258,3.202 -10.258,5.6c0,2.906 1.261,3.752 13.669,5.394c12.278,1.622 18.11,3.921 18.11,12.551c-0.001,8.705 -7.26,13.691 -19.92,13.691z" fill="#699F63" id="svg_4"/>
   </g>
   <g id="svg_5">
    <path d="m295.638,197.216c0,4.237 -3.464,7.7 -7.7,7.7c-4.197,0 -7.7,-3.422 -7.7,-7.7c0,-4.359 3.586,-7.702 7.7,-7.702c4.157,0 7.7,3.342 7.7,7.702zm-14.156,-0.022c0,3.586 2.893,6.479 6.436,6.479c3.586,0 6.479,-2.954 6.479,-6.479c0,-3.585 -2.932,-6.436 -6.479,-6.436c-3.503,0 -6.436,2.81 -6.436,6.436zm3.563,-4.298l2.976,0c1.018,0 3.016,0 3.016,2.283c0,1.589 -1.018,1.914 -1.632,2.118c1.184,0.082 1.264,0.856 1.426,1.956c0.083,0.692 0.206,1.875 0.448,2.281l-1.831,0c-0.043,-0.406 -0.328,-2.608 -0.328,-2.729c-0.119,-0.49 -0.285,-0.733 -0.896,-0.733l-1.506,0l0,3.462l-1.672,0l0,-8.638l-0.001,0zm1.632,3.789l1.344,0c1.098,0 1.304,-0.773 1.304,-1.221c0,-1.183 -0.816,-1.183 -1.264,-1.183l-1.383,0l-0.001,2.404l0,0z" fill="#699F63" id="svg_6"/>
   </g>
   <path d="m101.964,96.943c0,-1.841 -0.969,-3.533 -2.558,-4.446l-42.359,-24.378c-0.716,-0.421 -1.52,-0.64 -2.332,-0.674c-0.073,0 -0.378,0 -0.438,0c-0.81,0.033 -1.612,0.252 -2.339,0.674l-42.359,24.378c-1.579,0.912 -2.561,2.604 -2.561,4.446l0.093,65.641c0,0.912 0.474,1.762 1.277,2.21c0.786,0.471 1.758,0.471 2.541,0l25.174,-14.415c1.592,-0.945 2.561,-2.614 2.561,-4.439l0,-30.668c0,-1.828 0.969,-3.52 2.554,-4.429l10.719,-6.174c0.799,-0.461 1.672,-0.687 2.565,-0.687c0.872,0 1.768,0.226 2.544,0.687l10.716,6.174c1.586,0.909 2.558,2.601 2.558,4.429l0,30.668c0,1.825 0.982,3.504 2.565,4.439l25.167,14.415c0.79,0.471 1.775,0.471 2.558,0c0.78,-0.448 1.271,-1.297 1.271,-2.21l0.083,-65.641z" fill="#f9df1b" id="svg_7"/>
   <path d="m305.781,6.708c-0.793,-0.441 -1.76,-0.431 -2.543,0.028c-0.781,0.46 -1.262,1.299 -1.262,2.206l0,65.006c0,0.639 -0.342,1.231 -0.894,1.551c-0.554,0.32 -1.238,0.32 -1.792,0l-10.609,-6.113c-1.583,-0.912 -3.53,-0.91 -5.112,0.002l-42.376,24.455c-1.584,0.914 -2.559,2.603 -2.559,4.431l0,48.921c0,1.828 0.975,3.517 2.558,4.432l42.374,24.474c1.584,0.914 3.535,0.914 5.119,0l42.38,-24.474c1.583,-0.916 2.558,-2.604 2.558,-4.432l0,-121.947c0,-1.855 -1.004,-3.565 -2.624,-4.469l-25.218,-14.071zm-3.932,124.414c0,0.456 -0.244,0.879 -0.64,1.106l-14.549,8.387c-0.395,0.227 -0.882,0.227 -1.277,0l-14.55,-8.387c-0.396,-0.227 -0.64,-0.65 -0.64,-1.106l0,-16.8c0,-0.456 0.244,-0.879 0.639,-1.108l14.549,-8.403c0.396,-0.229 0.884,-0.229 1.28,0l14.549,8.403c0.395,0.229 0.639,0.652 0.639,1.108l0,16.8z" fill="#f9df1b" id="svg_8"/>
   <g id="svg_9">
    <path d="m446.884,113.882c1.576,-0.916 2.546,-2.601 2.546,-4.424l0,-11.855c0,-1.823 -0.97,-3.51 -2.548,-4.426l-42.103,-24.446c-1.584,-0.921 -3.54,-0.922 -5.127,-0.007l-42.36,24.455c-1.583,0.914 -2.558,2.603 -2.558,4.431l0,48.908c0,1.84 0.987,3.536 2.585,4.446l42.097,23.988c1.553,0.886 3.455,0.896 5.018,0.028l25.462,-14.153c0.808,-0.449 1.311,-1.297 1.315,-2.219c0.007,-0.922 -0.484,-1.776 -1.284,-2.236l-42.629,-24.467c-0.796,-0.456 -1.285,-1.304 -1.285,-2.22l0,-15.327c0,-0.914 0.488,-1.76 1.28,-2.216l13.267,-7.649c0.79,-0.456 1.765,-0.456 2.554,0l13.274,7.649c0.793,0.456 1.28,1.302 1.28,2.216l0,12.059c0,0.916 0.49,1.762 1.282,2.218c0.793,0.458 1.77,0.454 2.561,-0.005l25.373,-14.748z" fill="#f9df1b" id="svg_10"/>
    <path d="m401.591,111.591c0.304,-0.176 0.678,-0.176 0.982,0l8.131,4.691c0.304,0.176 0.491,0.499 0.491,0.851l0,9.389c0,0.352 -0.187,0.675 -0.491,0.851l-8.131,4.691c-0.304,0.176 -0.678,0.176 -0.982,0l-8.125,-4.691c-0.304,-0.176 -0.491,-0.499 -0.491,-0.851l0,-9.389c0,-0.352 0.187,-0.675 0.491,-0.851l8.125,-4.691z" fill="#699F63" id="svg_11"/>
   </g>
   <g id="svg_12">
    <linearGradient id="XMLID_2_" x1="0" x2="1" y1="0.5" y2="0.5">
     <stop offset="0.0053" stop-color="#000000"/>
     <stop offset="0.1938" stop-color="#171717"/>
     <stop offset="0.5423" stop-color="#3D3D3D"/>
     <stop offset="0.8235" stop-color="#545454"/>
     <stop offset="1" stop-color="#5C5C5C"/>
    </linearGradient>
    <path d="m167.756,68.979c1.57,-0.907 3.505,-0.907 5.075,0l42.03,24.255c1.572,0.907 2.539,2.582 2.539,4.397l0,48.546c0,1.813 -0.967,3.489 -2.538,4.397l-42.03,24.274c-1.571,0.907 -3.507,0.907 -5.078,0l-42.021,-24.274c-1.57,-0.908 -2.537,-2.583 -2.537,-4.397l0,-48.548c0,-1.813 0.968,-3.489 2.539,-4.395l42.021,-24.255z" fill="url(#XMLID_2_)" id="XMLID_67_" stroke="#ffffff"/>
    <g id="svg_13">
     <g id="svg_14">
      <defs>
       <path d="m172.841,68.979c-1.57,-0.907 -3.505,-0.907 -5.075,0l-42.03,24.255c-1.572,0.907 -2.539,2.582 -2.539,4.397l0,48.546c0,1.813 0.968,3.489 2.538,4.397l42.03,24.274c1.571,0.907 3.507,0.907 5.078,0l42.021,-24.274c1.57,-0.908 2.537,-2.583 2.537,-4.397l0,-48.548c0,-1.813 -0.967,-3.489 -2.539,-4.395l-42.021,-24.255z" id="SVGID_1_" stroke-width="4" fill="#f9df1b" stroke="#ffffff"/>
      </defs>
      <clipPath id="SVGID_2_">
       <use xlink:href="#SVGID_1_" id="svg_15" stroke-width="4" fill="#f9df1b" stroke="#ffffff"/>
      </clipPath>
      <g clip-path="url(#SVGID_2_)" id="svg_16">
       <path d="m167.707,68.979l-42.07,24.255c-1.571,0.907 -2.637,2.582 -2.637,4.395l0,48.548c0,1.178 0.444,2.293 1.182,3.182l47.297,-80.907c-1.263,-0.31 -2.622,-0.138 -3.772,0.527z" fill="#f9df1b" id="svg_17" stroke-width="4" stroke="#ffffff"/>
       <path d="m171.746,175.275c0.337,-0.109 0.669,-0.245 0.986,-0.428l41.93,-24.274c1.57,-0.908 2.337,-2.583 2.337,-4.397l0,-48.546c0,-1.218 -0.36,-2.367 -1.066,-3.269l-44.187,80.914z" fill="#f9df1b" id="svg_18" stroke-width="4" stroke="#ffffff"/>
       <path d="m214.649,93.233l-41.843,-24.255c-0.419,-0.242 -0.867,-0.414 -1.327,-0.527l-47.297,80.907c0.398,0.48 0.878,0.896 1.428,1.214l42.094,24.274c1.255,0.724 2.707,0.86 4.042,0.428l44.188,-80.914c-0.346,-0.441 -0.769,-0.829 -1.285,-1.127z" fill="#f9df1b" opacity="0.66" id="svg_19" stroke-width="4" stroke="#ffffff"/>
      </g>
     </g>
     <g id="svg_20">
      <defs>
       <path d="m172.841,68.979c-1.57,-0.907 -3.505,-0.907 -5.075,0l-42.03,24.255c-1.572,0.907 -2.539,2.582 -2.539,4.397l0,48.546c0,1.813 0.968,3.489 2.538,4.397l42.03,24.274c1.571,0.907 3.507,0.907 5.078,0l42.021,-24.274c1.57,-0.908 2.537,-2.583 2.537,-4.397l0,-48.548c0,-1.813 -0.967,-3.489 -2.539,-4.395l-42.021,-24.255z" id="SVGID_3_" stroke-width="4" fill="#f9df1b" stroke="#ffffff"/>
      </defs>
      <clipPath id="SVGID_4_">
       <use xlink:href="#SVGID_3_" id="svg_21" stroke-width="4" fill="#f9df1b" stroke="#ffffff"/>
      </clipPath>
      <g clip-path="url(#SVGID_4_)" id="svg_22">
       <path d="m126.114,92.958l-0.477,0.275c-1.571,0.907 -2.637,2.582 -2.637,4.395l0,48.548c0,1.813 1.041,3.489 2.61,4.397l42.094,24.274c1.134,0.655 2.431,0.829 3.656,0.539l-45.246,-82.428z" fill="#f9df1b" id="svg_23" stroke-width="4" stroke="#ffffff"/>
       <path d="m217,97.63c0,-1.815 -0.78,-3.49 -2.351,-4.397l-41.843,-24.255c-0.37,-0.214 -0.763,-0.373 -1.166,-0.486l45.36,77.494l0,-48.356z" fill="#f9df1b" id="svg_24" stroke-width="4" stroke="#ffffff"/>
       <linearGradient id="SVGID_5_" x1="-0.03926" x2="1.02997" y1="0.5" y2="0.5">
        <stop offset="0" stop-color="#5C5C5C"/>
        <stop offset="0.1765" stop-color="#545454"/>
        <stop offset="0.4577" stop-color="#3D3D3D"/>
        <stop offset="0.8062" stop-color="#171717"/>
        <stop offset="0.9947" stop-color="#000000"/>
       </linearGradient>
       <path d="m172.732,174.847l41.93,-24.274c1.57,-0.908 2.337,-2.583 2.337,-4.397l0,-0.19l-45.36,-77.493c-1.307,-0.366 -2.733,-0.207 -3.933,0.486l-41.593,23.98l45.246,82.428c0.473,-0.113 0.936,-0.287 1.373,-0.54z" fill="#f9df1b" id="svg_25" stroke-width="4" stroke="#ffffff"/>
      </g>
     </g>
    </g>
    <g id="svg_44"/>
   </g>
  </g>
 </g>
</svg>