<svg version="1.2" baseProfile="tiny-ps" xmlns="http://www.w3.org/2000/svg" viewBox="0 0 24 24" width="24" height="24">
	<title>iconmonstr-github-1-svg</title>
	<style>
		tspan { white-space:pre }
		.shp0 { fill: #f6b93b } 
	</style>
	<path id="Layer" class="shp0" d="M12 0C5.37 0 0 5.37 0 12C0 17.3 3.44 21.8 8.21 23.39C8.81 23.5 9 23.13 9 22.81L9 20.58C5.66 21.3 4.97 19.16 4.97 19.16C4.42 17.77 3.63 17.4 3.63 17.4C2.54 16.66 3.72 16.68 3.72 16.68C4.92 16.76 5.56 17.91 5.56 17.91C6.63 19.75 8.36 19.22 9.05 18.91C9.15 18.13 9.47 17.6 9.81 17.3C7.14 17 4.34 15.97 4.34 11.37C4.34 10.06 4.81 8.99 5.58 8.15C5.45 7.85 5.04 6.63 5.7 4.98C5.7 4.98 6.7 4.65 9 6.21C9.95 5.94 10.98 5.81 12 5.8C13.02 5.81 14.05 5.94 15.01 6.21C17.3 4.65 18.3 4.98 18.3 4.98C18.96 6.63 18.55 7.85 18.42 8.15C19.19 8.99 19.66 10.06 19.66 11.37C19.66 15.98 16.85 17 14.18 17.29C14.61 17.67 15 18.4 15 19.52L15 22.81C15 23.13 15.19 23.5 15.8 23.39C20.57 21.8 24 17.3 24 12C24 5.37 18.63 0 12 0Z" />
</svg>