<svg version="1.2" baseProfile="tiny-ps" xmlns="http://www.w3.org/2000/svg" viewBox="0 0 32 32" width="32" height="32">
	<title>nodejs-svg</title>
	<style>
		tspan { white-space:pre }
		.shp0 { fill: #287628 } 
	</style>
	<path id="Layer" fill-rule="evenodd" class="shp0" d="M21.45 6.04L22.75 6.8C22.9 6.89 23 7.05 23 7.23L23 16.75C23 16.93 22.9 17.09 22.75 17.18L19.75 18.93C19.68 18.98 19.59 19 19.5 19C19.41 19 19.32 18.98 19.25 18.93L16.25 17.18C16.1 17.09 16 16.93 16 16.75L16 13.25C16 13.07 16.1 12.91 16.25 12.82L19.25 11.07C19.32 11.02 19.41 11 19.5 11C19.59 11 19.68 11.02 19.75 11.07L21 11.8L21 6.3C21 6.13 21.14 6 21.3 6C21.35 6 21.4 6.01 21.45 6.04ZM11.75 11.07L14.75 12.82C14.9 12.91 15 13.07 15 13.25L15 16.75C15 16.93 14.9 17.09 14.75 17.18L11.75 18.93C11.6 19.02 11.4 19.02 11.25 18.93L8.25 17.18C8.1 17.09 8 16.93 8 16.75L8 13.25C8 13.07 8.1 12.91 8.25 12.82L11.25 11.07C11.32 11.02 11.41 11 11.5 11C11.59 11 11.68 11.02 11.75 11.07ZM27.75 11.07L30.75 12.82C30.9 12.91 31 13.07 31 13.25L31 14.18C31 14.36 30.9 14.52 30.75 14.61C30.75 14.61 29.61 15.27 29.23 15.5C29.14 15.55 29 15.53 29 15.36L29 14.11L27.5 13.24L26 14.11L26 15.9L29.09 17.73C29.24 17.81 29.24 18.03 29.09 18.11L27.67 18.94C27.51 19.04 27.31 19.03 27.16 18.94L24.25 17.18C24.1 17.09 24 16.93 24 16.75L24 13.25C24 13.07 24.1 12.91 24.25 12.82L27.25 11.07C27.32 11.02 27.41 11 27.5 11C27.59 11 27.67 11.02 27.75 11.07ZM3.75 11.07L6.75 12.82C6.9 12.91 7 13.07 7 13.25L7 17.72C7 17.93 6.76 18.07 6.58 17.96L5.25 17.19C5.1 17.1 5 16.93 5 16.76L5 14.11L3.5 13.24L2 14.11L2 16.76C2 16.93 1.9 17.1 1.75 17.19L0.42 17.96C0.24 18.07 0 17.93 0 17.72L0 13.25C0 13.07 0.1 12.91 0.25 12.82L3.25 11.07C3.32 11.03 3.41 11 3.5 11C3.59 11 3.68 11.03 3.75 11.07ZM18 14.11L18 15.89L19.5 16.76L21 15.89L21 14.11L19.5 13.24L18 14.11ZM28.36 14.5L28.36 15.5L27.5 16L26.64 15.5L26.64 14.5L27.5 14L28.36 14.5ZM15.7 18.07L18.51 19.7C18.69 19.81 18.81 20 18.81 20.21L18.81 23.46C18.81 23.67 18.7 23.87 18.51 23.97L15.7 25.6C15.62 25.65 15.51 25.68 15.41 25.68C15.3 25.68 15.2 25.65 15.11 25.6L14.18 25.04C14.03 24.97 14.1 24.94 14.15 24.92C14.34 24.86 14.38 24.84 14.57 24.73C14.59 24.72 14.62 24.72 14.64 24.73L15.36 25.16C15.39 25.18 15.42 25.18 15.45 25.16L18.26 23.53C18.29 23.52 18.31 23.49 18.31 23.46L18.31 20.21C18.31 20.17 18.29 20.15 18.26 20.13L15.45 18.51C15.43 18.49 15.39 18.49 15.36 18.51L12.55 20.13C12.52 20.15 12.51 20.18 12.51 20.21L12.51 23.46C12.51 23.48 12.52 23.51 12.55 23.53L13.32 23.97C13.74 24.18 13.99 23.93 13.99 23.69L13.99 20.48C13.99 20.44 14.03 20.4 14.08 20.4L14.43 20.4C14.48 20.4 14.52 20.43 14.52 20.48L14.52 23.69C14.52 24.25 14.21 24.57 13.68 24.57C13.52 24.57 13.39 24.57 13.04 24.39L12.3 23.97C12.12 23.86 12 23.67 12 23.46L12 20.21C12 20 12.11 19.8 12.3 19.7L15.11 18.07C15.2 18.02 15.3 18 15.41 18C15.51 18 15.61 18.02 15.7 18.07ZM20.33 20.04C20.33 20.33 20.09 20.58 19.79 20.58C19.5 20.58 19.25 20.33 19.25 20.04C19.25 19.73 19.51 19.5 19.79 19.5C20.08 19.49 20.33 19.73 20.33 20.04ZM19.34 20.04C19.34 20.29 19.54 20.49 19.79 20.49C20.04 20.49 20.25 20.28 20.25 20.04C20.25 19.78 20.04 19.58 19.79 19.58C19.54 19.58 19.34 19.78 19.34 20.04ZM19.8 19.73C19.87 19.73 20.01 19.73 20.01 19.89C20.01 20 19.94 20.02 19.89 20.04C19.98 20.04 19.98 20.1 20 20.18C20 20.23 20.01 20.31 20.03 20.34L19.9 20.34C19.9 20.31 19.88 20.15 19.88 20.15C19.87 20.11 19.86 20.09 19.81 20.09L19.71 20.09L19.71 20.34L19.59 20.34L19.59 19.73L19.8 19.73ZM19.71 20L19.8 20C19.88 20 19.89 19.94 19.89 19.91C19.89 19.83 19.83 19.83 19.8 19.83L19.71 19.83L19.71 20ZM17.56 21.31C17.57 21.33 17.56 21.35 17.54 21.37C17.53 21.38 17.51 21.39 17.48 21.39L17.12 21.39C17.08 21.39 17.05 21.37 17.04 21.33C16.95 20.94 16.74 20.81 16.16 20.81C15.51 20.81 15.44 21.04 15.44 21.21C15.44 21.41 15.53 21.47 16.4 21.59C17.27 21.7 17.68 21.87 17.68 22.47C17.68 23.09 17.17 23.44 16.27 23.44C15.03 23.44 14.78 22.87 14.78 22.4C14.78 22.35 14.82 22.32 14.86 22.32L15.22 22.32C15.27 22.32 15.3 22.35 15.31 22.39C15.36 22.76 15.53 22.94 16.27 22.94C16.87 22.94 17.12 22.81 17.12 22.49C17.12 22.31 17.05 22.18 16.13 22.09C15.36 22.01 14.88 21.85 14.88 21.23C14.88 20.66 15.36 20.32 16.16 20.32C17.06 20.32 17.5 20.63 17.56 21.31Z" />
</svg>